<?xml version="1.0" standalone="no"?>
<!DOCTYPE svg PUBLIC "-//W3C//DTD SVG 20010904//EN"
 "http://www.w3.org/TR/2001/REC-SVG-20010904/DTD/svg10.dtd">
<svg version="1.0" xmlns="http://www.w3.org/2000/svg"
 width="500.000000pt" height="500.000000pt" viewBox="0 0 500.000000 500.000000"
 preserveAspectRatio="xMidYMid meet">

<g transform="translate(0.000000,500.000000) scale(0.100000,-0.100000)"
fill="#000000" stroke="none">
<path d="M2425 4533 c-326 -27 -514 -75 -773 -198 -236 -113 -432 -258 -596
-441 -244 -272 -384 -512 -487 -829 -47 -143 -89 -418 -89 -577 0 -166 40
-406 98 -593 104 -331 362 -708 652 -950 167 -139 456 -303 651 -368 382 -129
844 -141 1205 -31 336 101 603 262 863 517 319 313 513 718 582 1207 19 139
15 396 -10 533 -69 390 -184 652 -424 972 -208 277 -563 536 -887 645 -263 89
-560 132 -785 113z m190 -59 c8 -4 29 -26 45 -49 20 -28 42 -47 65 -55 19 -6
33 -16 30 -21 -11 -17 -65 -9 -112 15 -40 22 -47 23 -60 10 -18 -18 -53 -27
-87 -22 -44 5 -30 22 26 32 29 4 54 9 56 11 1 1 -3 15 -10 30 -11 24 -10 29 7
41 22 16 19 16 40 8z m-161 -10 c16 -6 23 -64 8 -64 -5 0 -29 -14 -55 -31 -29
-19 -56 -29 -72 -27 -35 4 -31 21 8 34 18 6 34 19 36 30 11 60 31 75 75 58z
m-167 -20 c15 -39 -65 -130 -118 -134 -60 -5 -68 12 -14 31 24 9 38 22 45 43
17 48 39 76 61 76 11 0 22 -7 26 -16z m548 -41 c24 -43 37 -55 68 -63 46 -13
39 -30 -12 -30 -61 0 -151 77 -151 130 0 18 5 21 33 18 27 -3 37 -11 62 -55z
m-718 10 c8 -21 -34 -99 -66 -122 -28 -20 -89 -32 -97 -20 -2 5 9 15 26 24 17
9 36 31 45 53 25 58 44 82 66 82 11 0 22 -7 26 -17z m872 -2 c11 -11 25 -37
30 -59 11 -38 40 -62 76 -62 8 0 15 -4 15 -10 0 -5 -18 -10 -41 -10 -66 0
-149 78 -149 140 0 27 43 27 69 1z m-1053 -42 c11 -19 -18 -90 -52 -126 -25
-26 -39 -33 -70 -33 l-39 0 36 30 c23 18 39 42 43 62 12 63 60 102 82 67z
m1227 -7 c9 -10 20 -36 25 -57 6 -30 17 -46 47 -67 50 -34 57 -35 45 -2 -6 14
-10 36 -10 50 0 19 5 24 26 24 32 0 53 -25 54 -62 0 -43 19 -74 57 -92 l35
-17 -7 40 c-6 34 -4 40 15 46 33 11 56 -18 63 -78 5 -39 13 -58 32 -74 34 -30
59 -30 52 -1 -14 52 44 82 63 32 6 -14 10 -42 10 -62 0 -58 10 -82 41 -97 38
-20 39 -20 39 20 0 43 22 55 50 30 17 -15 20 -31 20 -94 l0 -75 -32 31 c-34
32 -97 63 -129 63 -36 0 -33 -23 9 -61 36 -31 51 -38 106 -44 35 -3 72 -13 83
-20 27 -21 33 -18 33 19 0 39 20 60 49 51 24 -7 35 -50 26 -108 -10 -66 -20
-76 -44 -45 -21 26 -98 68 -126 68 -24 0 -18 -24 18 -64 28 -32 41 -38 97 -47
43 -7 71 -18 83 -31 17 -20 17 -20 17 -1 0 31 21 83 33 83 6 0 19 -7 29 -17
14 -12 18 -31 18 -77 0 -67 -8 -106 -20 -106 -5 0 -19 19 -32 41 -18 33 -34
45 -73 60 -28 11 -53 15 -58 10 -11 -11 35 -86 65 -105 13 -8 41 -18 62 -22
38 -7 86 -42 86 -63 0 -6 -15 -2 -32 9 -18 11 -41 20 -52 20 -15 0 -17 -5 -11
-27 12 -49 46 -84 110 -113 34 -15 65 -36 69 -45 10 -26 0 -30 -29 -11 -15 10
-34 16 -44 14 -17 -3 -17 -7 6 -59 15 -34 34 -61 47 -67 30 -13 96 -71 96 -84
0 -5 -13 0 -29 11 -41 30 -65 28 -57 -4 14 -56 27 -76 60 -91 19 -9 39 -27 45
-40 12 -28 9 -29 -23 -8 -17 10 -26 12 -31 4 -14 -22 7 -66 51 -106 24 -23 44
-50 44 -60 0 -15 -4 -14 -28 9 -36 35 -42 34 -42 -7 0 -47 16 -85 50 -121 16
-17 32 -46 36 -65 l6 -35 -26 38 c-15 20 -31 37 -36 37 -6 0 -10 -28 -10 -62
0 -57 4 -67 35 -107 19 -24 35 -54 35 -67 0 -32 -6 -30 -25 6 -23 45 -45 39
-47 -12 -2 -75 3 -102 23 -130 22 -31 36 -88 22 -88 -5 0 -14 14 -20 31 -19
48 -37 31 -47 -45 -8 -60 -6 -73 13 -111 11 -23 21 -53 20 -66 0 -20 -2 -18
-12 11 -22 64 -57 34 -76 -63 -6 -35 -5 -49 7 -60 8 -8 15 -35 17 -58 1 -24 0
-29 -2 -11 -3 26 -9 32 -28 32 -27 0 -36 -14 -61 -85 -12 -37 -13 -54 -5 -72
12 -25 6 -47 -9 -38 -19 12 -58 -20 -85 -69 -27 -50 -27 -53 -11 -83 9 -18 16
-45 16 -60 0 -20 7 -31 23 -38 29 -13 27 -63 -4 -87 -23 -20 -94 -24 -104 -8
-4 6 4 25 17 43 21 27 58 106 58 122 0 11 -47 4 -68 -11 -28 -19 -54 -69 -56
-107 -1 -27 -7 -32 -47 -43 -36 -11 -50 -21 -67 -53 -12 -21 -22 -48 -22 -60
0 -17 -6 -21 -33 -21 -45 0 -106 -43 -114 -81 -5 -24 -10 -29 -36 -29 -42 0
-107 -46 -107 -76 0 -23 -13 -30 -63 -33 -54 -2 -111 -46 -100 -77 2 -8 -12
-10 -44 -7 -53 5 -113 -23 -113 -53 0 -13 -7 -15 -40 -9 -58 10 -130 -19 -130
-52 0 -23 -1 -23 -31 -8 -41 22 -119 11 -127 -17 -3 -13 -9 -17 -21 -12 -9 4
-37 9 -62 12 -38 3 -50 0 -67 -18 -16 -18 -24 -20 -40 -11 -29 15 -119 14
-125 -1 -3 -10 -13 -9 -41 5 -46 21 -105 22 -120 1 -10 -14 -15 -13 -39 6 -37
30 -97 38 -109 16 -8 -15 -12 -14 -38 8 -37 31 -85 42 -115 26 -19 -10 -26 -8
-53 19 -32 33 -87 42 -109 20 -8 -8 -14 -5 -23 10 -16 31 -69 61 -109 61 -26
0 -42 9 -72 40 -22 22 -49 41 -61 41 -13 1 -27 2 -33 4 -5 1 -16 3 -22 3 -7 1
-13 7 -13 13 0 21 -58 67 -98 80 -25 7 -44 20 -51 35 -15 33 -89 84 -123 84
-22 0 -28 5 -28 21 0 46 -69 129 -107 129 -27 0 -28 -2 -7 -41 8 -17 13 -36
11 -42 -2 -7 -12 4 -21 23 -17 35 -18 35 -81 35 -74 0 -118 25 -123 68 -3 24
0 27 28 27 35 0 62 -12 103 -46 35 -30 43 -30 51 -1 7 29 -38 124 -64 132 -31
10 -39 -2 -29 -41 16 -56 4 -64 -14 -10 -9 27 -17 69 -17 93 0 67 -49 152 -78
134 -8 -5 -9 -16 -2 -41 10 -34 6 -50 -7 -36 -5 4 -9 41 -9 81 -2 89 -29 175
-56 175 -13 0 -18 -8 -18 -30 0 -16 -4 -30 -9 -30 -16 0 -21 45 -10 95 9 42 7
60 -8 110 -10 33 -23 59 -28 59 -6 -1 -15 -18 -20 -38 -6 -20 -14 -34 -18 -30
-12 13 -8 62 9 97 13 27 15 49 9 101 -7 73 -19 81 -45 30 l-15 -29 -3 27 c-2
14 6 45 17 67 22 42 31 171 12 171 -5 0 -17 -17 -27 -37 -18 -37 -19 -37 -22
-12 -2 17 9 46 27 77 26 42 31 59 31 113 l-1 64 -28 -33 c-16 -19 -32 -29 -35
-24 -9 15 8 54 34 77 29 26 46 61 53 108 5 30 3 37 -10 37 -9 0 -25 -7 -35
-17 -17 -15 -18 -15 -18 5 0 13 15 31 39 49 43 30 61 60 61 98 0 31 -9 31 -45
3 l-28 -22 7 29 c7 29 31 54 52 55 18 0 41 33 52 72 12 46 1 56 -34 33 -14 -9
-27 -15 -30 -13 -9 10 31 50 68 69 31 16 45 32 65 75 14 31 22 58 19 61 -3 4
-23 -1 -42 -11 -20 -9 -38 -15 -41 -13 -10 11 45 58 82 70 28 10 48 27 72 61
18 27 33 52 33 57 0 12 -37 11 -61 -1 -15 -8 -19 -7 -19 3 0 22 23 36 73 46
26 4 54 14 63 22 18 15 57 89 51 96 -3 2 -22 0 -43 -6 -46 -13 -50 -10 -26 19
13 17 34 25 76 31 58 8 95 31 118 73 15 28 -3 36 -55 22 -37 -9 -54 -20 -69
-44 -26 -41 -34 -40 -42 6 -11 67 -7 109 13 133 30 36 56 16 56 -44 0 -48 3
-49 50 -12 16 13 20 29 22 78 1 34 2 72 2 85 1 12 10 31 22 43 28 28 47 11 51
-46 l3 -43 34 29 c31 26 35 34 40 95 6 70 22 93 55 81 11 -4 16 -19 16 -47 l0
-41 29 17 c35 21 48 45 54 103 6 50 34 85 60 75 20 -7 22 -41 5 -96 -14 -48
-75 -103 -123 -112 -25 -5 -42 -19 -69 -56 -27 -38 -43 -50 -71 -56 -24 -4
-42 -16 -57 -38 -12 -17 -26 -32 -30 -34 -21 -9 -4 -22 27 -22 59 0 124 45
140 98 4 13 14 22 26 22 44 0 119 51 119 82 0 13 8 18 30 18 43 0 109 36 120
65 8 21 16 25 48 25 57 0 101 18 108 44 4 19 12 22 57 22 38 -1 60 5 82 21 18
12 45 21 67 21 45 0 75 9 110 34 16 11 32 16 38 13 21 -13 89 -7 119 11 24 14
33 16 43 6 15 -15 90 -16 105 -1 8 8 26 7 66 -2 48 -10 61 -10 88 4 28 13 34
13 43 1 15 -20 96 -33 125 -20 18 8 25 7 32 -7 13 -22 83 -40 121 -31 24 5 35
2 47 -13 23 -28 89 -45 132 -33 18 6 34 10 35 10 0 0 0 -10 0 -22 -1 -34 74
-70 127 -61 30 4 38 3 33 -6 -9 -15 18 -48 56 -67 28 -15 100 -19 111 -7 13
13 -47 63 -88 74 -22 6 -58 26 -80 43 -28 23 -55 35 -90 39 -43 6 -56 13 -96
56 -50 54 -69 99 -47 112 21 14 44 10 61 -9z m-1395 -74 c4 -35 -35 -116 -66
-136 -27 -18 -94 -43 -99 -38 -2 2 17 20 42 40 39 32 45 42 45 75 0 70 71 124
78 59z m-750 -585 c6 -10 9 -32 7 -50 -3 -37 -36 -123 -48 -123 -25 0 -37 134
-15 170 16 25 44 26 56 3z m-114 -176 c14 -53 -6 -156 -32 -165 -16 -5 -42 64
-42 114 0 70 58 110 74 51z m3302 -12 c17 -27 13 -93 -8 -141 -18 -39 -32 -30
-54 33 -11 31 -6 96 10 121 12 19 34 14 52 -13z m-3416 -165 c13 -24 16 -112
6 -158 -7 -28 -10 -31 -23 -21 -26 23 -43 67 -43 118 0 68 36 105 60 61z
m3520 -26 c20 -51 -21 -197 -49 -179 -17 10 -30 99 -21 144 11 63 52 83 70 35z
m-3606 -173 c26 -29 39 -87 25 -113 -12 -22 -12 -22 -45 17 -23 26 -34 48 -34
70 0 49 23 60 54 26z m3676 -34 c0 -34 -59 -114 -71 -96 -15 24 -10 65 12 93
26 33 59 35 59 3z m-3703 -163 c15 -43 20 -100 10 -111 -19 -18 -86 85 -87
133 0 60 54 45 77 -22z m3749 31 c9 -21 -14 -72 -50 -113 -33 -38 -46 -30 -46
30 0 63 78 130 96 83z m34 -169 c9 -12 7 -24 -8 -58 -20 -46 -64 -98 -82 -98
-17 0 -16 81 1 116 9 18 55 53 70 54 4 0 12 -6 19 -14z m-3842 -19 c11 -12 28
-39 37 -59 41 -99 -9 -116 -69 -24 -36 56 -34 100 5 105 3 1 15 -9 27 -22z
m3866 -203 c11 -28 -72 -134 -105 -134 -16 0 -10 74 8 100 34 50 84 67 97 34z
m-3872 -21 c41 -42 66 -133 38 -133 -18 0 -87 69 -100 100 -25 60 16 81 62 33z
m3852 -169 c31 -12 18 -55 -30 -101 -52 -51 -80 -53 -77 -8 3 41 18 66 56 93
17 12 33 22 34 22 1 0 8 -3 17 -6z m-3836 -49 c28 -31 58 -103 47 -113 -16
-16 -97 44 -120 89 -33 63 23 82 73 24z m3822 -196 c0 -27 -62 -92 -100 -106
l-32 -12 5 35 c8 47 30 80 70 104 34 21 57 13 57 -21z m-3802 -5 c31 -24 62
-76 62 -104 0 -34 -100 21 -125 70 -17 32 -11 60 13 60 8 0 31 -12 50 -26z
m3742 -189 c16 -19 -2 -68 -34 -88 -28 -18 -83 -37 -89 -30 -13 12 26 90 56
111 37 26 50 27 67 7z m-3680 -21 c17 -15 40 -44 51 -65 l19 -39 -26 0 c-62 0
-144 75 -123 113 14 24 43 21 79 -9z m3604 -170 c56 -22 -48 -133 -115 -122
-18 3 -18 4 1 45 12 28 31 48 57 62 46 24 38 22 57 15z m-3535 -20 c33 -13 91
-76 91 -99 0 -11 -69 -4 -97 10 -46 23 -66 50 -59 80 7 29 13 30 65 9z m3369
-154 c-4 -29 -3 -30 28 -24 37 7 48 -5 39 -44 -7 -32 -43 -57 -97 -67 -33 -6
-38 -5 -38 12 0 10 11 35 25 55 14 20 25 44 25 52 0 18 10 46 17 46 3 0 3 -14
1 -30z m-3240 -49 c11 -6 34 -29 52 -51 l32 -40 -39 1 c-86 1 -158 53 -134 97
9 17 16 19 40 12 15 -4 37 -13 49 -19z m3035 -275 c-3 -13 2 -35 12 -49 30
-46 -2 -105 -50 -93 -18 5 -25 13 -25 32 l0 25 -30 -21 c-27 -19 -30 -26 -30
-78 0 -83 -42 -133 -70 -83 -16 31 -13 52 17 113 27 54 55 78 92 78 10 0 23
12 30 28 30 66 63 96 54 48z m-2720 -97 c30 -19 63 -46 72 -61 8 -15 35 -36
59 -46 23 -11 53 -34 66 -51 13 -19 48 -45 83 -62 34 -16 74 -43 89 -59 15
-17 37 -30 50 -30 22 0 40 -10 100 -53 14 -9 51 -24 83 -32 31 -9 70 -24 85
-35 19 -14 44 -20 78 -20 34 0 57 -6 75 -20 20 -16 40 -20 96 -20 61 0 72 -3
82 -21 10 -19 17 -21 57 -15 26 4 58 8 72 9 35 3 32 -25 -3 -34 -15 -4 -46
-24 -67 -43 -22 -20 -44 -36 -49 -36 -16 0 -29 25 -33 60 -2 29 -7 35 -30 38
-20 2 -34 -6 -59 -32 -18 -20 -38 -36 -44 -36 -20 0 -38 28 -44 68 -8 50 -39
55 -87 13 -19 -17 -41 -31 -49 -31 -21 0 -38 38 -31 72 5 24 1 31 -19 40 -20
9 -31 6 -69 -16 -24 -14 -51 -23 -60 -20 -20 8 -29 38 -21 73 4 19 1 32 -10
41 -14 12 -23 11 -58 -8 -23 -12 -49 -22 -57 -22 -37 0 -54 55 -26 83 13 13
10 17 -20 33 -34 18 -34 18 -80 -6 -45 -25 -46 -25 -60 -6 -18 25 -18 37 1 72
24 47 -20 77 -74 50 -40 -21 -68 -20 -81 3 -16 31 -12 47 15 59 21 10 24 15
16 31 -8 15 -25 19 -86 23 -82 5 -104 20 -105 67 0 22 3 23 44 19 25 -3 67
-20 99 -39z m2497 -109 c0 -6 -11 -20 -25 -32 -21 -18 -25 -31 -25 -73 0 -58
-17 -89 -46 -84 -33 7 -32 82 2 131 34 48 94 85 94 58z m-150 -108 c0 -5 -11
-19 -24 -31 -16 -15 -27 -39 -31 -72 -4 -27 -15 -59 -25 -71 -15 -19 -20 -20
-34 -9 -10 8 -16 29 -16 54 0 34 7 46 49 88 43 44 81 63 81 41z m-183 -128
c-23 -22 -37 -46 -37 -61 0 -36 -28 -85 -47 -81 -52 10 -35 93 29 146 23 18
52 32 66 32 26 0 26 0 -11 -36z m-137 -42 c0 -5 -13 -21 -29 -36 -16 -15 -32
-42 -35 -60 -6 -31 -38 -76 -54 -76 -5 0 -16 6 -26 13 -39 29 19 118 99 153
36 16 45 17 45 6z m-170 -63 c0 -6 -11 -20 -25 -31 -14 -11 -32 -36 -41 -56
-15 -38 -42 -72 -55 -72 -4 0 -15 7 -23 16 -14 14 -14 19 4 53 30 60 140 130
140 90z m-160 -42 c0 -8 -11 -19 -25 -25 -14 -7 -37 -32 -52 -56 -34 -57 -67
-76 -89 -54 -14 14 -13 19 12 57 27 42 67 70 114 82 39 10 40 10 40 -4z m-165
-27 c3 -6 -6 -15 -21 -20 -14 -6 -47 -33 -72 -61 -47 -52 -75 -60 -96 -27 -14
23 23 63 89 94 53 25 90 30 100 14z m-185 -15 c0 -9 -9 -15 -21 -15 -13 0 -42
-21 -70 -50 -52 -54 -72 -61 -89 -31 -8 16 -5 26 15 50 40 47 165 82 165 46z"/>
<path d="M2270 4205 c-328 -52 -613 -188 -884 -420 -359 -308 -591 -813 -588
-1280 1 -200 5 -241 31 -370 31 -157 54 -221 132 -380 87 -175 174 -299 309
-439 347 -358 778 -541 1270 -538 282 1 557 70 783 194 39 21 72 38 74 38 13
0 178 123 258 192 130 111 252 260 344 418 68 116 89 157 104 202 8 23 22 61
30 83 150 402 119 963 -74 1347 -140 279 -352 527 -579 678 -102 67 -304 165
-425 206 -180 60 -330 84 -530 83 -93 -1 -208 -7 -255 -14z m534 -91 c10 -4
16 -18 16 -36 0 -26 -3 -29 -27 -26 -28 3 -40 25 -29 54 6 15 16 17 40 8z
m251 -31 c28 -13 54 -28 58 -32 8 -8 -62 -154 -83 -175 -7 -7 -28 -1 -63 17
-28 14 -64 29 -79 32 -16 3 -28 12 -28 20 0 9 18 52 40 96 41 80 41 80 73 74
18 -4 55 -18 82 -32z m-770 -3 c0 -30 -33 -40 -51 -15 -19 25 -6 47 25 43 20
-2 26 -8 26 -28z m-180 -30 c41 0 42 -3 15 -37 l-20 -26 20 -34 20 -35 -41 7
c-36 6 -44 4 -70 -21 l-29 -28 0 47 c0 42 -3 48 -32 63 l-32 17 34 16 c25 11
38 26 45 49 l10 34 22 -26 c16 -19 32 -26 58 -26z m464 11 c35 -18 69 -49 60
-54 -2 -1 -53 0 -114 3 l-110 5 49 33 c58 37 65 38 115 13z m81 -106 c-4 -11
-5 -100 -3 -198 l4 -178 -125 3 -125 3 -6 197 -6 197 135 -2 c129 -2 133 -2
126 -22z m595 -29 c8 -7 11 -17 7 -21 -4 -5 3 -5 16 -2 19 4 21 3 11 -9 -10
-12 -9 -13 6 -8 12 5 16 4 12 -3 -4 -6 0 -14 9 -17 12 -5 15 -2 10 10 -4 10
-2 14 6 11 7 -2 21 0 31 5 13 6 19 4 24 -8 8 -22 -15 -35 -54 -31 -35 3 -44
-7 -32 -38 4 -11 8 -31 8 -44 1 -19 -2 -21 -13 -12 -8 6 -19 25 -26 41 -11 27
-15 29 -64 27 -47 -2 -51 0 -54 21 -5 32 16 80 36 85 33 9 54 7 67 -7z m-1389
-10 c8 -8 14 -21 14 -29 0 -8 7 -20 15 -27 8 -7 15 -19 15 -28 0 -12 -9 -13
-49 -8 -48 6 -50 6 -71 -29 -12 -20 -25 -34 -28 -31 -3 3 2 14 11 24 18 20 23
47 7 37 -9 -6 -14 8 -11 28 0 4 -6 7 -14 7 -9 0 -12 6 -9 15 4 8 10 15 16 15
5 0 16 7 24 15 9 8 23 15 32 14 14 0 13 -2 -3 -9 -18 -8 -18 -9 -2 -9 10 -1
20 6 23 14 8 19 12 19 30 1z m1082 -40 c3 -12 -1 -17 -10 -14 -7 3 -15 13 -16
22 -3 12 1 17 10 14 7 -3 15 -13 16 -22z m-82 -17 c24 -10 79 -29 123 -43 44
-14 124 -48 178 -75 255 -129 452 -325 582 -581 68 -135 89 -187 104 -266 l12
-59 58 -6 c66 -7 73 -12 82 -54 7 -28 6 -29 -8 -10 -13 17 -25 19 -107 16 -86
-3 -92 -1 -97 18 -5 20 -12 21 -108 21 l-102 0 -66 -69 c-37 -38 -67 -73 -68
-78 -11 -107 -3 -130 72 -205 33 -33 44 -38 84 -38 25 0 56 5 67 11 27 14 68
-3 68 -29 0 -11 9 -31 21 -45 16 -21 18 -31 10 -46 -6 -11 -11 -29 -11 -39 0
-28 59 -179 77 -197 9 -10 34 -15 69 -15 30 0 54 -4 54 -9 0 -16 -31 -34 -68
-40 -34 -6 -38 -10 -62 -76 -44 -118 -106 -228 -184 -331 -87 -116 -118 -146
-247 -246 -151 -117 -325 -198 -559 -258 -121 -31 -356 -40 -481 -19 -364 63
-552 148 -801 365 -105 92 -137 129 -218 259 -71 112 -112 202 -150 330 l-28
90 -38 3 c-110 7 -238 23 -255 32 -27 15 -24 25 9 26 15 0 199 1 410 2 l382 2
19 31 c26 43 15 70 -38 89 l-41 14 0 192 c0 152 -3 194 -14 203 -10 8 -107 12
-337 12 -274 0 -325 -3 -338 -15 -12 -13 -14 -47 -12 -206 l3 -190 -31 0 c-29
0 -30 0 -15 28 10 21 14 71 14 215 0 174 1 188 20 207 19 19 68 26 155 23 17
-1 49 1 72 3 37 5 42 8 48 37 26 120 109 312 190 438 79 122 286 322 431 414
113 72 187 104 410 175 17 6 58 10 92 10 l62 0 0 -177 c0 -150 2 -179 17 -195
14 -16 33 -18 150 -18 183 0 173 -13 173 221 l0 181 62 -7 c34 -4 81 -16 104
-26z m611 -54 c14 -10 32 -13 48 -9 32 8 55 -10 55 -45 0 -32 -25 -71 -46 -71
-8 0 -28 -7 -44 -15 -28 -15 -29 -14 -59 27 -35 47 -39 82 -14 110 20 22 32
23 60 3z m-1815 -20 c9 -21 7 -34 -16 -80 -15 -30 -30 -55 -35 -55 -5 0 -29 9
-55 20 -56 26 -81 64 -63 101 14 26 51 37 71 20 10 -8 17 -7 26 4 20 24 59 19
72 -10z m-247 -137 c17 -7 24 -17 20 -28 -4 -13 1 -15 29 -12 36 4 50 -7 40
-32 -8 -20 -48 -21 -64 -1 -7 9 -21 13 -30 10 -17 -5 -50 18 -50 35 0 16 12
40 21 40 4 0 20 -5 34 -12z m2243 0 c7 -7 12 -25 12 -40 0 -24 -4 -28 -30 -28
-41 0 -58 32 -30 60 23 23 31 25 48 8z m-2364 -115 c1 -26 -3 -57 -8 -68 -9
-19 -9 -19 -16 1 -8 20 8 129 18 120 2 -3 5 -27 6 -53z m1256 18 c0 -15 -16
-22 -34 -15 -25 9 -19 24 9 24 14 0 25 -4 25 -9z m1178 -127 c18 -18 15 -24
-12 -24 -26 0 -51 24 -42 39 7 11 35 3 54 -15z m-2533 -12 c0 -18 -20 -15 -23
4 -3 10 1 15 10 12 7 -3 13 -10 13 -16z m2654 -67 c0 -5 -4 -3 -9 5 -5 8 -9
22 -9 30 0 16 17 -16 18 -35z m-2720 -87 c1 -99 -24 -105 -36 -9 -7 58 15 130
28 95 4 -10 8 -49 8 -86z m2818 -5 c-5 -51 -23 -76 -33 -49 -4 10 -1 42 6 72
11 44 16 52 23 38 5 -9 7 -36 4 -61z m-69 42 c-3 -3 -9 2 -12 12 -6 14 -5 15
5 6 7 -7 10 -15 7 -18z m-2578 6 c0 -17 -19 -22 -37 -11 -15 9 -14 10 6 4 16
-4 21 -3 17 5 -4 6 -2 11 3 11 6 0 11 -4 11 -9z m2491 -24 c-10 -9 -11 -8 -5
6 3 10 9 15 12 12 3 -3 0 -11 -7 -18z m49 -35 c-7 -3 -19 4 -28 13 -11 12 -12
15 -3 10 11 -6 13 -4 8 11 -6 15 -2 13 14 -6 14 -16 17 -26 9 -28z m160 -46
c0 -30 -5 -67 -11 -83 -10 -26 -12 -26 -19 -8 -5 13 -2 26 7 37 12 13 14 29 9
63 -5 29 -4 45 3 45 7 0 11 -23 11 -54z m-23 -28 c-3 -7 -5 -2 -5 12 0 14 2
19 5 13 2 -7 2 -19 0 -25z m-2787 -12 c-15 -15 -39 -16 -33 -1 2 8 13 13 24
12 12 -1 15 -5 9 -11z m-8 -68 c-7 -7 -12 -8 -12 -2 0 14 12 26 19 19 2 -3 -1
-11 -7 -17z m-32 -13 c-7 -9 -15 -13 -17 -11 -7 7 7 26 19 26 6 0 6 -6 -2 -15z
m-94 -50 c4 -17 13 -25 28 -25 11 0 28 -5 36 -10 12 -8 11 -13 -8 -33 -12 -13
-22 -31 -22 -40 0 -15 -3 -16 -21 -7 -16 9 -26 8 -44 -4 -26 -17 -35 -12 -35
21 0 13 -9 31 -20 40 -29 25 -25 35 23 60 54 28 55 27 63 -2z m2994 4 c52 -27
56 -36 31 -63 -12 -12 -21 -32 -21 -44 0 -29 -16 -36 -42 -18 -12 9 -29 16
-37 16 -14 0 -61 45 -61 59 0 11 25 21 51 21 12 0 19 7 19 18 0 17 8 32 16 32
2 0 22 -9 44 -21z m75 -239 c0 -18 -6 -26 -23 -28 -13 -2 -30 2 -38 9 -13 10
-12 14 3 31 24 27 58 20 58 -12z m-368 -39 c11 -17 24 -20 104 -19 l92 0 18
-37 c32 -65 79 -133 104 -149 20 -13 29 -14 50 -4 56 25 38 -18 -44 -105 -45
-48 -46 -51 -43 -108 2 -50 -1 -60 -18 -69 -11 -6 -20 -17 -20 -26 0 -21 -47
-91 -69 -104 -51 -27 -68 -12 -102 92 -17 51 -18 64 -7 93 11 31 10 38 -10 64
-12 17 -22 44 -22 61 0 22 -5 30 -18 30 -10 0 -28 7 -40 16 -20 14 -31 14 -89
3 l-66 -13 -38 43 c-34 38 -39 50 -39 93 0 46 4 54 52 104 l51 54 71 0 c60 0
73 -3 83 -19z m-2551 -107 c-14 -39 -17 -41 -48 -29 -16 6 -18 1 -18 -45 0
-29 8 -68 17 -88 19 -40 93 -122 111 -122 19 0 84 62 114 109 22 35 28 57 28
98 0 57 -4 62 -31 37 -16 -15 -19 -13 -38 30 -12 24 -21 47 -21 50 0 4 54 6
120 6 l120 0 -2 -177 -3 -178 -290 0 -290 0 -3 177 -2 177 122 3 c68 2 124 1
126 -3 1 -3 -4 -23 -12 -45z m94 6 c11 -22 17 -40 13 -40 -5 0 -1 -5 8 -10 11
-6 15 -18 11 -36 -3 -19 -1 -25 7 -20 6 4 11 2 11 -3 0 -6 -6 -11 -12 -11 -10
0 -10 -2 0 -8 10 -7 10 -15 2 -38 -12 -30 -58 -84 -72 -84 -9 0 -48 60 -48 73
0 5 5 5 12 1 8 -5 9 -2 5 11 -6 14 -3 16 13 12 17 -4 19 -3 9 9 -6 8 -9 14 -5
14 3 0 1 12 -5 28 -14 35 -13 77 2 113 15 39 25 36 49 -11z m2859 -362 c0 -13
-8 -43 -17 -68 -13 -32 -23 -45 -37 -45 -35 0 -32 56 5 99 37 42 50 45 49 14z
m-2841 -19 c2 -5 16 -2 32 6 40 21 282 22 299 1 26 -31 -10 -34 -389 -31
l-375 3 -3 22 -4 23 219 -7 c120 -4 219 -12 221 -17z m2745 -258 c10 -7 17
-19 17 -27 0 -29 -25 -65 -49 -71 -14 -3 -32 -10 -38 -16 -10 -7 -17 0 -28 26
-20 47 -20 97 0 97 8 0 22 14 31 31 l16 31 17 -28 c10 -16 25 -35 34 -43z
m-2993 19 c31 0 40 -22 28 -68 -6 -23 -14 -42 -19 -42 -5 0 -9 -7 -9 -14 0
-23 -55 0 -85 36 -30 36 -32 64 -5 71 11 3 25 18 31 34 l11 28 15 -22 c9 -13
23 -23 33 -23z m105 -178 c-1 -59 -27 -122 -52 -122 -33 0 -95 35 -108 61 -23
43 -19 48 27 36 33 -8 43 -8 46 3 3 9 9 5 17 -10 11 -21 12 -21 19 18 16 105
51 114 51 14z m2754 -21 c1 -19 4 -21 15 -12 10 8 15 9 18 1 2 -7 17 -6 47 5
24 8 46 13 48 11 2 -2 -2 -15 -8 -30 -14 -31 -60 -61 -107 -70 -31 -5 -34 -3
-52 37 -23 49 -25 95 -8 133 l12 26 17 -38 c10 -22 18 -50 18 -63z m-2683 -73
c11 -34 8 -142 -5 -146 -6 -2 -11 -11 -11 -19 0 -12 -7 -14 -31 -9 -17 3 -37
6 -44 6 -16 0 -75 60 -75 77 0 8 10 11 30 8 97 -16 87 -19 95 32 11 77 26 95
41 51z m2604 -57 c0 -9 7 -24 14 -34 11 -14 19 -16 40 -7 15 5 38 10 52 10 22
0 23 -2 12 -21 -30 -47 -147 -85 -154 -49 -2 8 -9 35 -15 60 -9 38 -9 52 6 85
l16 40 15 -34 c8 -18 14 -41 14 -50z m-2506 -95 c17 -37 22 -126 6 -126 -5 0
-7 -7 -4 -15 5 -12 -4 -15 -44 -15 -40 0 -57 6 -81 26 -41 34 -39 44 8 44 54
0 71 8 71 35 0 35 12 85 20 85 4 0 15 -15 24 -34z m2400 8 c3 -9 6 -34 6 -57
l0 -42 61 3 61 4 -16 -25 c-18 -27 -56 -47 -89 -47 -39 0 -66 11 -61 25 3 7 1
16 -5 20 -15 9 -14 60 3 100 16 38 30 44 40 19z m-2314 -207 c0 -17 -10 -28
-33 -39 -49 -24 -64 -9 -30 30 34 38 63 42 63 9z m2236 -41 c-5 -21 -12 -25
-36 -23 -27 2 -30 6 -30 34 0 42 27 59 54 33 13 -13 17 -26 12 -44z m-2144
-15 c-3 -45 2 -47 55 -32 17 5 34 7 37 4 7 -7 -92 -123 -105 -123 -16 0 -10
26 11 45 27 25 25 36 -4 25 -29 -11 -36 -5 -36 29 l0 25 -28 -27 c-19 -19 -31
-24 -38 -17 -13 13 83 123 100 117 6 -2 10 -23 8 -46z m1986 -54 c7 -24 21
-55 32 -69 18 -24 18 -26 3 -33 -16 -5 -35 10 -45 35 -2 4 -22 13 -45 21 -50
16 -53 35 -5 31 30 -3 32 -1 26 22 -6 27 2 50 15 41 5 -2 13 -24 19 -48z
m-1811 -49 c-25 -104 -44 -151 -57 -143 -6 3 -8 16 -4 29 7 30 -37 56 -66 38
-25 -15 -30 -15 -30 2 0 16 47 52 100 78 50 23 63 22 57 -4z m1703 -2 c0 -8
-4 -18 -10 -21 -16 -10 -12 -19 26 -63 19 -23 33 -42 31 -42 -3 0 -12 -3 -20
-6 -9 -3 -24 10 -43 41 -26 40 -32 45 -56 39 -39 -8 -36 15 5 43 37 25 67 29
67 9z m-1589 -55 c22 -18 22 -20 6 -26 -9 -4 -23 -2 -31 4 -23 19 -25 1 -3
-40 20 -37 20 -39 2 -59 -25 -28 -59 -25 -84 6 -27 35 -17 50 16 24 36 -28 54
-11 30 29 -22 37 -22 57 1 70 25 15 37 13 63 -8z m1503 -57 c49 -83 36 -110
-16 -32 -43 65 -55 98 -36 98 8 0 31 -30 52 -66z m-1429 17 c3 -5 19 -12 35
-16 17 -4 30 -13 30 -21 0 -16 -28 -18 -50 -4 -9 6 -17 5 -22 -3 -12 -18 -10
-27 6 -27 16 0 38 -24 30 -33 -3 -3 -17 -2 -30 3 -29 11 -46 -9 -20 -24 38
-23 45 -31 38 -43 -6 -10 -18 -7 -51 9 -48 23 -48 29 -9 121 20 46 31 56 43
38z m1340 -1 c3 -6 -5 -14 -19 -20 -35 -13 -33 -30 5 -30 17 0 39 -5 50 -10
44 -24 5 -99 -46 -86 -34 9 -32 22 6 35 38 13 29 31 -16 31 -49 0 -64 37 -32
78 11 14 43 16 52 2z m-1194 -114 l11 -40 14 24 c7 14 13 33 14 43 0 9 7 17
15 17 18 0 11 -46 -20 -147 -8 -25 -32 -1 -49 47 -17 48 -36 66 -36 36 0 -8
-5 -27 -10 -42 -8 -21 -14 -24 -22 -16 -9 9 -7 26 6 69 24 76 36 91 53 67 7
-10 18 -36 24 -58z m1087 58 c18 -13 22 -22 17 -45 -6 -24 -3 -31 19 -40 14
-7 26 -16 26 -20 0 -15 -33 -18 -53 -4 -33 23 -50 20 -36 -6 12 -23 -4 -51
-19 -33 -9 10 -52 121 -52 134 0 8 44 28 65 29 6 1 21 -6 33 -15z m-128 -37
c0 -7 -14 -18 -31 -24 -35 -14 -30 -38 6 -29 34 9 41 -12 10 -26 -44 -20 -17
-41 34 -27 8 2 16 -3 18 -12 3 -12 -8 -19 -41 -28 -25 -6 -47 -11 -49 -11 -4
0 -21 52 -36 113 -9 35 -8 37 17 43 15 3 32 7 37 9 22 7 35 4 35 -8z m-751
-33 c29 -37 27 -79 -5 -109 -15 -14 -38 -25 -51 -25 -36 0 -73 42 -73 85 0 29
6 39 33 55 44 27 72 25 96 -6z m628 -6 c-3 -13 -9 -47 -13 -75 -11 -85 -25
-85 -78 2 -36 60 -42 75 -28 75 9 0 29 -19 44 -42 29 -45 31 -43 43 25 4 24
11 37 22 37 11 0 14 -6 10 -22z m-475 -60 c3 -55 6 -63 24 -66 18 -3 22 4 30
54 13 81 34 84 34 5 0 -48 -4 -65 -20 -81 -37 -37 -97 -16 -101 36 -6 59 2
114 16 114 10 0 15 -16 17 -62z m221 6 c-5 38 -3 46 11 46 11 0 16 -9 16 -27
0 -16 3 -52 6 -80 8 -67 -8 -70 -60 -13 l-36 40 0 -45 c0 -35 -3 -43 -15 -39
-12 5 -15 24 -15 87 l0 81 49 -48 49 -48 -5 46z m105 -26 c10 -57 10 -73 0
-79 -18 -11 -25 6 -33 84 -6 54 -5 67 7 67 10 0 18 -22 26 -72z"/>
<path d="M2987 4083 c-13 -12 -7 -23 23 -38 61 -32 83 -11 24 24 -40 24 -38
23 -47 14z"/>
<path d="M2489 3913 l-35 -4 -3 -136 c-1 -75 -4 -140 -7 -145 -3 -4 8 -8 23
-8 l29 0 -4 130 -4 130 31 0 31 0 0 -130 0 -130 27 0 26 0 -8 118 c-4 64 -9
128 -10 142 -2 14 -4 28 -4 33 -1 7 -24 7 -92 0z"/>
<path d="M2785 3776 c-19 -14 -19 -16 -3 -32 22 -22 50 -11 46 18 -4 27 -19
32 -43 14z"/>
<path d="M2233 3764 c-3 -8 1 -22 9 -30 13 -13 16 -13 27 -1 14 17 4 47 -15
47 -8 0 -17 -7 -21 -16z"/>
<path d="M2034 3715 c-8 -21 3 -45 20 -45 20 0 29 16 21 40 -7 23 -33 27 -41
5z"/>
<path d="M2974 3705 c-4 -9 -2 -21 4 -27 15 -15 44 -1 40 19 -4 23 -36 29 -44
8z"/>
<path d="M2177 3657 c-12 -18 -22 -23 -41 -20 -31 6 -33 -7 -5 -33 15 -14 19
-26 15 -47 -5 -25 -3 -28 12 -22 31 14 79 17 86 6 14 -22 25 -10 19 19 -4 24
0 37 17 55 l23 25 -33 0 c-20 0 -42 8 -55 20 l-22 21 -16 -24z"/>
<path d="M2822 3659 c-11 -17 -20 -20 -43 -15 -34 6 -37 -6 -10 -33 16 -16 18
-26 11 -54 l-8 -36 35 17 c31 15 36 15 65 -2 l31 -19 -6 32 c-5 26 -2 35 18
53 28 24 19 38 -26 38 -18 0 -28 6 -32 20 -7 26 -19 25 -35 -1z"/>
<path d="M1854 3656 c-39 -17 -79 -69 -93 -121 -31 -113 68 -259 165 -240 108
20 172 179 114 283 -40 70 -124 106 -186 78z m65 -171 c0 -69 -5 -123 -9 -120
-17 11 -11 245 7 245 2 0 3 -56 2 -125z"/>
<path d="M3065 3616 c-82 -48 -106 -126 -64 -208 46 -89 101 -112 183 -75 63
29 83 59 91 139 8 68 -15 114 -70 145 -50 28 -89 28 -140 -1z"/>
<path d="M1646 3484 c-9 -23 19 -53 35 -37 15 15 7 47 -12 51 -9 2 -19 -5 -23
-14z"/>
<path d="M3357 3493 c-11 -10 -8 -41 4 -49 16 -9 43 21 36 40 -7 16 -28 21
-40 9z"/>
<path d="M2240 3459 c0 -5 5 -7 10 -4 6 3 10 8 10 11 0 2 -4 4 -10 4 -5 0 -10
-5 -10 -11z"/>
<path d="M2124 3445 c-4 -9 -2 -21 4 -27 16 -16 47 -5 47 17 0 26 -42 34 -51
10z"/>
<path d="M2884 3439 c-8 -14 18 -31 30 -19 9 9 0 30 -14 30 -5 0 -12 -5 -16
-11z"/>
<path d="M2390 3400 c-153 -19 -315 -105 -438 -230 -47 -49 -149 -195 -176
-254 -83 -180 -88 -438 -13 -626 44 -107 89 -173 192 -275 147 -146 285 -214
478 -235 361 -39 705 150 849 467 51 113 69 203 69 343 -1 186 -35 302 -130
443 -131 195 -342 338 -538 367 -76 11 -210 11 -293 0z m384 -81 c50 -17 103
-40 118 -50 14 -11 29 -19 33 -19 14 0 126 -90 164 -132 85 -93 103 -119 141
-201 53 -113 72 -199 72 -328 0 -213 -66 -373 -217 -525 -99 -99 -172 -145
-297 -188 -265 -91 -547 -37 -764 146 -86 73 -140 145 -193 261 -54 116 -66
173 -66 317 0 109 4 136 28 214 16 49 36 101 46 115 10 14 35 52 56 84 60 90
192 207 291 257 125 63 194 78 358 79 130 1 144 -1 230 -30z"/>
<path d="M2553 3273 c9 -2 25 -2 35 0 9 3 1 5 -18 5 -19 0 -27 -2 -17 -5z"/>
<path d="M1941 2967 c-13 -21 -12 -21 5 -5 10 10 16 20 13 22 -3 3 -11 -5 -18
-17z"/>
<path d="M2008 2853 c7 -3 16 -2 19 1 4 3 -2 6 -13 5 -11 0 -14 -3 -6 -6z"/>
<path d="M2591 2744 c0 -11 3 -14 6 -6 3 7 2 16 -1 19 -3 4 -6 -2 -5 -13z"/>
<path d="M2785 2729 c-8 -33 -2 -45 15 -34 6 4 9 14 6 22 -4 10 -2 13 8 10 10
-4 12 0 9 14 -8 29 -31 23 -38 -12z"/>
<path d="M1915 2671 c-3 -5 -1 -12 5 -16 5 -3 10 1 10 9 0 18 -6 21 -15 7z"/>
<path d="M1990 2668 c0 -4 12 -8 27 -8 14 0 23 3 19 7 -10 10 -46 11 -46 1z"/>
<path d="M1875 2660 c-3 -5 -2 -10 4 -10 5 0 13 5 16 10 3 6 2 10 -4 10 -5 0
-13 -4 -16 -10z"/>
<path d="M1926 2645 c-9 -11 -15 -15 -11 -8 3 8 -5 11 -29 10 -24 -2 -32 -6
-28 -16 3 -8 1 -12 -5 -8 -6 4 -10 -7 -9 -30 1 -23 7 -38 16 -41 13 -5 13 -3
1 12 -8 9 -11 19 -7 23 3 3 6 1 6 -5 0 -7 5 -12 11 -12 7 0 9 10 5 25 -4 15
-2 25 4 25 6 0 9 -4 6 -8 -2 -4 -1 -14 4 -22 5 -8 5 -21 -1 -31 -7 -14 -5 -16
12 -12 16 4 18 8 7 14 -11 7 -11 9 1 9 11 0 11 3 1 15 -7 9 -10 19 -6 23 8 7
13 8 41 11 8 0 15 6 15 12 0 5 -4 7 -10 4 -5 -3 -10 -1 -10 4 0 6 6 11 14 11
8 0 17 4 20 8 10 17 -31 6 -48 -13z"/>
<path d="M2248 2653 c6 -2 18 -2 25 0 6 3 1 5 -13 5 -14 0 -19 -2 -12 -5z"/>
<path d="M2950 2638 c0 -16 -4 -28 -10 -28 -5 0 -10 -5 -10 -10 0 -7 6 -7 20
0 14 7 20 7 20 0 0 -5 -4 -10 -10 -10 -5 0 -10 -4 -10 -8 0 -4 8 -8 18 -8 14
0 17 6 14 23 -2 13 -9 23 -14 23 -5 0 -7 4 -4 8 2 4 1 14 -5 22 -6 11 -9 8 -9
-12z"/>
<path d="M2002 2638 c6 -18 25 -21 25 -3 0 8 -7 15 -14 15 -8 0 -13 -5 -11
-12z"/>
<path d="M3011 2626 c-7 -8 -11 -23 -8 -33 4 -15 5 -14 6 4 0 12 7 23 14 26 6
2 9 7 6 11 -3 4 -12 0 -18 -8z"/>
<path d="M2048 2623 c7 -3 16 -2 19 1 4 3 -2 6 -13 5 -11 0 -14 -3 -6 -6z"/>
<path d="M2063 2586 c-7 -8 -18 -17 -25 -20 -10 -5 -10 -7 0 -12 6 -3 9 -11 5
-17 -5 -8 -2 -8 9 0 8 7 18 11 21 8 4 -3 5 -2 3 1 -3 3 -1 17 4 30 10 26 2 31
-17 10z"/>
<path d="M2090 2565 c0 -8 2 -15 4 -15 2 0 6 7 10 15 3 8 1 15 -4 15 -6 0 -10
-7 -10 -15z"/>
<path d="M2308 2563 c7 -3 16 -2 19 1 4 3 -2 6 -13 5 -11 0 -14 -3 -6 -6z"/>
<path d="M2428 2563 c7 -3 16 -2 19 1 4 3 -2 6 -13 5 -11 0 -14 -3 -6 -6z"/>
<path d="M2593 2520 c0 -25 2 -35 4 -22 2 12 2 32 0 45 -2 12 -4 2 -4 -23z"/>
<path d="M2260 2531 c0 -12 29 -81 35 -81 2 0 -3 20 -12 45 -14 42 -23 56 -23
36z"/>
<path d="M1973 2523 c-7 -2 -13 -9 -13 -14 0 -6 7 -6 18 0 13 7 23 6 32 -2 12
-10 12 -9 1 6 -14 18 -18 19 -38 10z"/>
<path d="M2055 2519 c-4 -6 -5 -12 -2 -15 2 -3 7 2 10 11 7 17 1 20 -8 4z"/>
<path d="M3073 2523 c-23 -9 -14 -20 12 -15 14 2 22 8 19 13 -6 10 -12 10 -31
2z"/>
<path d="M2470 2370 c-11 -8 -7 -9 15 -4 37 8 45 14 19 14 -10 0 -26 -5 -34
-10z"/>
<path d="M2370 2323 c0 -6 -8 -13 -17 -16 -10 -2 32 -3 92 -3 94 0 98 0 25 3
-51 2 -87 9 -92 16 -6 9 -8 9 -8 0z"/>
<path d="M2283 2203 c16 -3 25 -9 21 -15 -5 -7 -2 -8 7 -2 8 5 66 11 129 15
l115 6 -150 0 c-82 0 -138 -2 -122 -4z"/>
<path d="M2578 2203 c12 -2 32 -2 45 0 12 2 2 4 -23 4 -25 0 -35 -2 -22 -4z"/>
<path d="M2693 2185 c0 -8 4 -12 9 -9 5 3 6 10 3 15 -9 13 -12 11 -12 -6z"/>
<path d="M3069 2153 c-13 -16 -12 -17 4 -4 16 13 21 21 13 21 -2 0 -10 -8 -17
-17z"/>
<path d="M2416 2053 c-6 -14 -5 -15 5 -6 7 7 10 15 7 18 -3 3 -9 -2 -12 -12z"/>
<path d="M2890 2026 c0 -2 7 -7 16 -10 8 -3 12 -2 9 4 -6 10 -25 14 -25 6z"/>
<path d="M2873 2013 c4 -3 1 -13 -6 -22 -11 -14 -10 -14 5 -2 16 12 16 31 1
31 -4 0 -3 -3 0 -7z"/>
<path d="M1562 3364 c-11 -23 -16 -25 -57 -18 -41 6 -45 4 -45 -15 0 -11 -9
-25 -21 -31 -15 -9 -18 -15 -10 -24 8 -10 6 -20 -9 -39 -11 -14 -20 -30 -20
-35 0 -5 -9 -12 -20 -15 -29 -7 -25 -24 10 -42 23 -12 30 -22 30 -45 0 -23 5
-30 19 -30 28 0 32 12 18 49 -6 18 -18 31 -29 31 -25 0 -33 21 -10 27 21 5 47
56 43 82 -1 7 2 10 8 7 6 -4 13 5 17 19 4 16 13 25 25 25 24 0 24 0 -6 -56
-38 -72 -30 -146 23 -207 28 -31 3 -30 -27 1 l-29 32 -27 -41 c-30 -46 -27
-58 12 -40 20 9 28 9 33 0 4 -6 16 -8 28 -5 14 5 25 -1 41 -21 l21 -28 21 28
c22 29 74 38 97 15 19 -19 24 -3 15 44 -6 27 -14 43 -23 43 -9 0 -14 -8 -13
-21 2 -17 -2 -21 -16 -17 -10 3 -22 0 -25 -6 -4 -6 -16 -11 -27 -11 -10 0 -19
-4 -19 -10 0 -28 -19 -4 -33 43 -27 86 -8 287 26 287 4 0 15 -16 23 -35 17
-41 19 -216 3 -247 -19 -35 0 -32 35 6 56 59 58 132 5 208 -23 32 -24 45 -3
27 13 -10 17 -10 24 1 5 8 12 11 16 7 4 -3 1 -13 -6 -22 -10 -12 -9 -16 6 -22
10 -4 19 -2 22 5 2 7 8 12 14 12 6 0 4 -8 -5 -18 -19 -21 -10 -76 14 -78 8 -1
20 -2 27 -3 22 -2 13 -21 -11 -21 -31 0 -55 -68 -30 -87 18 -14 53 -17 53 -5
0 4 -7 16 -16 27 -14 18 -12 22 18 47 l33 27 -33 30 c-26 24 -31 35 -26 56 4
18 2 27 -10 31 -9 3 -16 14 -16 23 0 9 -4 22 -9 30 -8 12 -12 12 -25 2 -22
-18 -60 -6 -80 24 -21 32 -30 31 -44 -1z"/>
<path d="M3374 3356 c-17 -8 -44 -31 -60 -52 -26 -34 -29 -45 -29 -115 0 -63
4 -83 21 -106 34 -45 81 -67 140 -67 88 2 142 46 166 136 36 138 -107 261
-238 204z m158 -77 c54 -64 44 -152 -21 -196 -53 -36 -96 -31 -142 16 -35 34
-39 44 -39 87 0 87 51 138 130 130 36 -3 50 -11 72 -37z"/>
<path d="M3418 3262 c-51 -31 -46 -122 8 -142 32 -13 80 12 89 47 7 30 -18 88
-43 102 -25 13 -21 14 -54 -7z m41 -64 c-10 -19 -29 -16 -29 6 0 6 5 17 12 24
17 17 30 -6 17 -30z"/>
<path d="M1583 3250 c0 -36 2 -50 4 -32 2 17 2 47 0 65 -2 17 -4 3 -4 -33z"/>
<path d="M3180 3245 c-15 -18 -5 -35 20 -35 10 0 22 5 25 10 7 11 -12 40 -25
40 -4 0 -13 -7 -20 -15z"/>
<path d="M1584 3132 c-7 -4 -8 -25 -4 -57 l6 -50 5 58 c2 31 4 57 4 57 0 0 -5
-4 -11 -8z"/>
<path d="M3660 3080 c0 -22 7 -25 29 -11 16 10 6 31 -15 31 -8 0 -14 -9 -14
-20z"/>
<path d="M1305 3014 c-15 -16 -15 -18 4 -38 20 -19 22 -19 38 -3 13 13 15 21
7 34 -15 24 -29 26 -49 7z"/>
<path d="M3673 3023 c-18 -7 -16 -38 2 -53 20 -17 47 5 43 34 -3 21 -22 29
-45 19z"/>
<path d="M1230 2890 c0 -19 7 -20 133 -21 113 -2 211 0 292 5 11 0 20 8 20 16
0 13 -33 15 -222 18 -218 2 -223 2 -223 -18z m440 0 c0 -5 -4 -10 -10 -10 -5
0 -10 5 -10 10 0 6 5 10 10 10 6 0 10 -4 10 -10z"/>
<path d="M3390 2890 c0 -19 6 -20 201 -20 186 0 200 1 197 18 -3 15 -22 17
-201 20 -192 2 -197 2 -197 -18z"/>
<path d="M1602 2799 c1 -13 8 -23 13 -21 15 3 12 35 -3 40 -9 3 -13 -3 -10
-19z"/>
<path d="M3438 2353 c-20 -5 -24 -32 -5 -34 9 -1 179 0 250 1 5 0 7 7 5 16 -2
13 -22 17 -118 19 -63 1 -123 0 -132 -2z"/>
<path d="M3367 2213 c-16 -15 -6 -34 15 -31 29 4 38 38 10 38 -10 0 -22 -3
-25 -7z"/>
<path d="M3489 2197 c-48 -32 -81 -100 -76 -157 9 -106 67 -159 172 -160 172
0 237 233 89 317 -54 31 -138 31 -185 0z m177 -33 c34 -23 54 -65 54 -114 0
-81 -52 -133 -131 -132 -56 1 -97 27 -121 77 -19 40 -20 48 -9 86 7 24 26 55
43 71 25 24 39 28 84 28 34 0 64 -6 80 -16z"/>
<path d="M3519 2121 c-39 -40 -41 -109 -4 -146 34 -35 102 -35 142 -1 24 21
28 32 28 76 0 44 -4 55 -28 76 -41 35 -99 33 -138 -5z m120 -27 c12 -15 21
-36 21 -47 0 -32 -39 -67 -73 -67 -77 0 -92 90 -22 128 32 18 52 14 74 -14z"/>
<path d="M3570 2064 c-11 -12 -10 -18 3 -32 16 -15 18 -15 33 0 19 18 12 48
-9 48 -8 0 -20 -7 -27 -16z"/>
<path d="M1230 2105 c0 -22 4 -26 23 -23 14 2 22 10 22 23 0 13 -8 21 -22 23
-19 3 -23 -1 -23 -23z"/>
<path d="M1694 2105 c-4 -8 -12 -15 -20 -15 -16 0 -19 -26 -4 -35 6 -3 10 -16
10 -28 0 -19 5 -22 40 -22 29 0 40 4 40 15 0 8 3 25 6 37 5 18 1 25 -20 33
-14 5 -26 14 -26 20 0 15 -20 12 -26 -5z"/>
<path d="M1373 2103 c-7 -2 -13 -10 -13 -17 0 -7 -9 -21 -20 -31 -28 -26 -25
-57 10 -90 17 -16 30 -35 30 -42 0 -17 6 -16 41 4 16 10 29 23 29 29 0 7 9 16
20 19 11 3 20 15 20 25 0 25 -21 70 -32 70 -5 0 -7 4 -3 9 12 20 -49 38 -82
24z m62 -23 c3 -5 -3 -10 -15 -10 -12 0 -18 5 -15 10 3 6 10 10 15 10 5 0 12
-4 15 -10z"/>
<path d="M1511 2091 c-18 -12 -7 -41 16 -41 28 0 47 16 40 34 -7 17 -34 21
-56 7z"/>
<path d="M3281 2076 c-8 -10 -11 -26 -7 -42 5 -20 12 -25 33 -22 14 2 31 11
37 21 23 36 -36 76 -63 43z"/>
<path d="M1820 1945 c-19 -23 -3 -55 30 -55 29 0 45 26 33 56 -7 18 -47 18
-63 -1z"/>
<path d="M3174 1945 c-10 -24 3 -44 31 -51 38 -9 52 9 31 40 -18 29 -53 35
-62 11z"/>
<path d="M1576 1928 c-59 -16 -131 -92 -140 -148 -16 -98 22 -178 105 -220
141 -72 305 58 270 215 -16 70 -58 119 -127 144 -30 12 -58 21 -62 20 -4 -1
-25 -6 -46 -11z m34 -64 c0 -9 -8 -28 -18 -42 -11 -15 -24 -51 -29 -81 -10
-51 -9 -55 15 -78 31 -29 41 -29 86 2 55 37 101 31 86 -11 -15 -39 -82 -73
-125 -64 -5 1 -22 1 -36 0 -34 -2 -92 56 -107 108 -17 55 9 127 57 159 40 27
71 30 71 7z m90 -7 c36 -23 64 -65 75 -108 6 -26 5 -27 -39 -31 -47 -3 -58 6
-34 30 9 9 9 15 1 23 -9 9 -18 8 -37 -4 -25 -17 -25 -17 -30 16 -14 91 -14 97
9 97 12 0 37 -10 55 -23z"/>
<path d="M3336 1885 c-11 -8 -30 -15 -43 -15 -15 0 -23 -6 -23 -18 0 -10 -9
-36 -20 -57 -23 -43 -20 -92 6 -132 19 -30 18 -47 -6 -68 -23 -21 -27 -55 -6
-55 7 0 25 9 39 20 14 11 30 20 36 20 6 0 11 4 11 10 0 12 61 82 67 76 2 -2
-5 -23 -16 -47 -15 -31 -18 -46 -10 -53 10 -11 15 -7 61 56 l16 23 35 -37 c33
-36 60 -47 71 -30 2 4 -9 27 -26 51 -25 37 -28 50 -23 83 6 32 3 44 -20 73
-20 27 -22 35 -11 35 9 0 30 -19 46 -42 30 -41 32 -55 14 -102 -4 -11 -2 -15
8 -11 24 10 37 68 23 101 -23 53 -96 101 -135 89 -11 -4 -20 3 -28 20 -13 28
-37 32 -66 10z m39 -26 c7 -11 -22 -49 -37 -49 -12 0 -10 34 4 48 15 15 25 15
33 1z m-64 -107 c-1 -28 2 -60 8 -71 17 -30 -8 -39 -31 -11 -21 25 -24 77 -6
115 18 40 32 24 29 -33z m136 19 c29 -43 29 -47 -2 -67 -22 -14 -30 -15 -50
-4 -31 17 -40 55 -20 87 21 31 44 26 72 -16z"/>
<path d="M1884 1875 c-9 -23 4 -47 23 -43 26 5 28 35 3 48 -16 9 -21 8 -26 -5z"/>
<path d="M3124 1876 c-8 -22 3 -49 19 -43 6 2 12 14 12 27 0 27 -22 39 -31 16z"/>
<path d="M1341 1847 c-15 -19 -3 -49 18 -45 9 2 16 13 16 27 0 29 -17 37 -34
18z"/>
<path d="M1995 1810 c-15 -17 -16 -24 -7 -45 14 -31 46 -32 66 -3 13 19 14 25
2 43 -18 28 -39 30 -61 5z"/>
<path d="M3008 1806 c-22 -30 -4 -60 33 -54 27 3 38 40 19 64 -17 20 -32 17
-52 -10z"/>
<path d="M3633 1814 c-3 -8 1 -22 9 -30 13 -13 16 -13 27 0 7 9 11 23 7 31 -7
20 -35 19 -43 -1z"/>
<path d="M2167 1727 c-8 -22 17 -51 37 -44 25 10 17 51 -10 55 -12 2 -24 -3
-27 -11z"/>
<path d="M2837 1733 c-12 -11 -8 -40 7 -52 11 -9 18 -8 30 4 19 20 20 27 4 43
-13 13 -31 16 -41 5z"/>
<path d="M2334 1695 c4 -14 2 -25 -3 -25 -23 0 -81 -64 -97 -105 -28 -74 -2
-158 70 -228 38 -37 39 -40 27 -70 -24 -61 -25 -67 -4 -67 11 0 30 11 43 25
13 14 28 25 34 25 6 0 31 -20 56 -45 25 -24 50 -44 55 -45 6 0 33 20 62 45 28
25 54 45 58 45 3 0 21 -11 39 -25 57 -44 80 -27 45 34 l-21 39 40 36 c109 99
106 266 -6 325 -18 10 -22 18 -18 37 9 36 -16 31 -64 -12 l-40 -36 -40 36
c-22 20 -47 36 -55 36 -8 0 -30 -14 -50 -31 l-36 -32 -22 20 c-22 21 -60 43
-72 43 -4 0 -4 -11 -1 -25z m189 -171 c4 -4 7 26 7 67 l0 74 20 -25 c30 -38
34 -67 21 -147 -11 -67 -11 -76 9 -119 l20 -47 -26 -38 c-49 -71 -71 -73 -104
-8 -25 49 -25 65 3 114 23 40 23 42 6 80 -24 54 -23 101 3 155 l22 45 6 -72
c3 -40 9 -76 13 -79z m-110 69 c-5 -12 -9 -12 -23 4 -10 10 -21 29 -25 43 l-7
25 30 -29 c18 -16 28 -34 25 -43z m266 45 c-15 -30 -40 -58 -51 -58 -17 0 -7
30 19 55 34 31 47 32 32 3z m-311 -58 c20 -26 21 -33 12 -76 -10 -43 -8 -75 6
-126 9 -31 -32 -21 -62 15 -60 71 -67 145 -19 193 30 30 35 30 63 -6z m367 6
c51 -51 45 -125 -17 -192 -22 -24 -46 -44 -52 -44 -7 0 -11 35 -11 107 0 93 3
110 20 129 26 29 31 29 60 0z m-325 -274 c0 -4 -13 -23 -30 -42 l-30 -35 23
42 c20 39 37 55 37 35z m259 -33 c30 -53 21 -60 -13 -9 -28 42 -31 50 -18 50
5 0 19 -18 31 -41z"/>
<path d="M2510 1324 c0 -32 3 -44 9 -35 8 13 5 70 -5 80 -2 2 -4 -18 -4 -45z"/>
<path d="M1885 1666 c-8 -19 -15 -44 -15 -54 0 -10 -13 -67 -30 -125 -16 -59
-30 -120 -30 -136 0 -28 4 -30 53 -40 154 -30 172 -32 183 -16 10 13 55 215
69 312 8 50 1 54 -95 72 -36 6 -77 14 -93 17 -24 5 -29 1 -42 -30z m121 -27
c32 -7 63 -15 67 -19 5 -4 4 -25 -2 -48 l-11 -40 -40 14 c-21 8 -58 17 -80 20
-35 6 -40 9 -34 28 3 11 8 29 10 39 6 20 12 21 90 6z m-96 -98 c0 -4 34 -14
76 -22 72 -13 75 -14 69 -37 -3 -13 -9 -38 -12 -54 -4 -22 -10 -27 -22 -22 -9
4 -45 15 -80 25 -35 10 -66 20 -68 23 -7 7 19 96 28 96 5 0 9 -4 9 -9z m73
-184 c14 -22 14 -23 -19 -19 -36 4 -49 15 -39 32 11 18 42 11 58 -13z"/>
<path d="M1947 1623 c-16 -16 -4 -31 33 -41 42 -10 50 -8 50 19 0 22 -66 40
-83 22z"/>
<path d="M1917 1504 c-14 -14 -6 -25 28 -40 45 -18 75 -18 75 1 0 21 -88 54
-103 39z"/>
<path d="M2968 1664 c-35 -18 -58 -62 -58 -110 0 -32 8 -44 58 -93 47 -44 63
-68 77 -113 23 -75 37 -87 75 -65 15 9 37 17 48 17 11 0 25 6 31 14 10 11 5
22 -26 52 -21 21 -46 49 -55 62 -16 24 -15 27 8 58 28 36 34 96 15 133 -29 53
-116 76 -173 45z m103 -37 c65 -44 60 -105 -12 -142 -28 -15 -33 -15 -62 2
-60 35 -62 108 -4 143 40 25 37 25 78 -3z m10 -229 c17 -24 18 -29 6 -19 -18
14 -42 51 -33 51 3 0 15 -15 27 -32z m47 -60 c-7 -19 -38 -22 -38 -4 0 10 9
16 21 16 12 0 19 -5 17 -12z"/>
<path d="M3002 1613 c-18 -7 -34 -51 -27 -74 10 -31 24 -22 27 18 2 28 9 41
28 50 21 11 22 13 5 12 -11 0 -26 -3 -33 -6z"/>
<path d="M3072 1588 c7 -15 15 -23 17 -17 2 6 -4 18 -13 27 -15 15 -15 15 -4
-10z"/>
<path d="M3309 1474 c-11 -14 -10 -18 6 -30 10 -8 22 -14 26 -14 14 0 29 28
23 44 -8 21 -38 21 -55 0z"/>
<path d="M1693 1464 c-3 -8 1 -22 8 -29 12 -12 17 -12 33 0 16 12 17 17 6 30
-16 20 -39 19 -47 -1z"/>
<path d="M2164 1335 c-4 -8 -15 -15 -26 -15 -16 0 -19 -5 -14 -22 3 -13 6 -38
6 -56 0 -28 3 -31 18 -25 21 10 43 10 59 0 15 -9 27 9 19 30 -4 9 1 24 9 33
15 16 14 18 -14 28 -17 6 -31 18 -31 26 0 20 -19 21 -26 1z"/>
<path d="M2857 1330 c-3 -12 -14 -20 -26 -20 -22 0 -30 -33 -11 -45 6 -4 9
-14 8 -23 -3 -14 7 -17 53 -19 l55 -1 0 31 c0 18 4 40 8 50 7 14 3 17 -17 17
-14 0 -27 7 -31 15 -8 22 -33 18 -39 -5z"/>
<path d="M1282 2520 c-7 -20 -7 -32 -1 -36 14 -8 20 0 23 30 5 38 -10 41 -22
6z"/>
<path d="M1627 1213 c-10 -9 -9 -23 2 -23 5 0 11 7 15 15 5 15 -5 20 -17 8z"/>
<path d="M3061 1071 c-17 -11 -7 -45 12 -39 13 5 23 48 10 48 -4 0 -14 -4 -22
-9z"/>
<path d="M2149 1001 c-21 -16 -22 -22 -11 -45 13 -28 49 -35 70 -14 18 18 14
56 -7 68 -25 13 -25 13 -52 -9z"/>
<path d="M3495 4032 c-30 -30 53 -92 123 -92 54 0 56 21 5 54 -38 25 -117 49
-128 38z"/>
</g>
</svg>
